Coordinates
version=1
nRows=12
nColumns=34
inDegrees=yes

Units are S.I. units (second, meters, Newtons, ...)
If the header above contains a line with 'inDegrees', this indicates whether rotational values are in degrees (yes) or radians (no).

endheader
time	pelvis_tilt	pelvis_list	pelvis_rotation	pelvis_tx	pelvis_ty	pelvis_tz	hip_flexion_r	hip_adduction_r	hip_rotation_r	knee_angle_r	ankle_angle_r	subtalar_angle_r	mtp_angle_r	hip_flexion_l	hip_adduction_l	hip_rotation_l	knee_angle_l	ankle_angle_l	subtalar_angle_l	mtp_angle_l	lumbar_extension	lumbar_bending	lumbar_rotation	arm_flex_r	arm_add_r	arm_rot_r	elbow_flex_r	pro_sup_r	arm_flex_l	arm_add_l	arm_rot_l	elbow_flex_l	pro_sup_l
      0.00000000	     -2.09497366	     -1.88710543	    -24.77009869	      1.21262609	      0.99473620	      0.21847637	     14.47640926	     -1.17347945	     -1.32465005	     23.16242320	     10.30310659	     -6.05376514	      0.00000000	     15.19459522	      2.38837379	     -1.53978393	     12.35835412	      4.99177763	     -5.65400080	      0.00000000	    -10.79233041	     -4.12274349	     -2.36163295	      2.54451357	    -17.80806656	     23.72011743	     33.48972018	    104.98377923	     -2.77906340	    -19.18506276	    -11.32249105	     31.16273447	    119.74807666
      0.01666670	     -1.63019653	     -2.35679466	    -24.41133636	      1.21264908	      0.99597961	      0.21733379	     13.97906447	     -1.58512049	     -3.96579103	     23.60904482	     10.99092836	     -2.59250226	      0.00000000	     14.66349971	      2.09217333	     -2.40989450	     12.53977340	      5.31480628	     -4.01832369	      0.00000000	    -11.74422020	     -3.72006663	     -2.33411278	      1.85048170	    -17.69931734	     20.24950627	     34.75348931	    107.64318978	     -2.35485342	    -18.29984027	    -15.37109747	     31.92561370	    119.74817918
      0.03333330	     -1.64101419	     -2.54532639	    -24.53504025	      1.21325110	      0.99616434	      0.21765219	     14.26283650	     -1.45228493	     -4.14310095	     24.29394359	     10.89711022	     -2.68776142	      0.00000000	     14.36778400	      1.90582661	     -2.37814189	     12.22978522	      5.46613781	     -4.00963412	      0.00000000	    -11.75568231	     -3.46289980	     -2.17319690	      2.05975023	    -17.55966663	     20.30804968	     34.67896933	    107.79641555	     -2.13371450	    -18.22501807	    -15.30666351	     31.91942067	    119.74817918
      0.05000000	     -1.65349245	     -2.15390873	    -25.15856984	      1.21318110	      0.99599081	      0.21858265	     15.36031427	     -1.86708908	     -4.01691637	     25.86815425	     10.87473580	     -2.59136786	      0.00000000	     14.23582391	      2.17689152	     -2.82454832	     11.72403262	      5.27202904	     -4.11566472	      0.00000000	    -11.53554991	     -3.87091427	     -1.56924018	      2.67598782	    -17.39075328	     20.67390307	     33.31843487	    109.02192688	     -1.54728505	    -18.55396422	    -14.61406300	     31.20630769	    119.74817918
      0.06666670	     -1.79249026	     -1.79831830	    -25.70182148	      1.21295909	      0.99567818	      0.21883059	     16.73571714	     -2.30061402	     -4.11706400	     27.78690909	     10.83827618	     -2.26909114	      0.00000000	     14.22667682	      2.40104074	     -3.29225312	     11.11536851	      5.05659752	     -4.12010861	      0.00000000	    -11.26292348	     -4.07529695	     -0.92922282	      3.14799326	    -17.44773615	     20.79697029	     32.43268729	    110.45862448	     -1.08197957	    -18.76733777	    -13.68936214	     31.10719965	    119.74817918
      0.08333330	     -1.74418063	     -1.89914139	    -25.85846428	      1.21310564	      0.99597319	      0.21899630	     17.34704417	     -2.36880015	     -4.55330212	     29.16555970	     10.39573142	     -2.44232419	      0.00000000	     13.93087239	      2.34152926	     -3.15546820	     10.82992920	      5.38671355	     -4.11599027	      0.00000000	    -11.44839778	     -3.90874244	     -0.53609162	      3.35035854	    -17.60558794	     20.71195478	     31.99038779	    110.64650587	     -0.63500566	    -18.88535046	    -13.61166834	     31.27364720	    119.74817918
      0.10000000	     -1.99920994	     -1.27748620	    -26.17647498	      1.21230053	      0.99541792	      0.21903152	     18.84734412	     -2.89691790	     -4.57168944	     31.06887509	      9.92303880	     -2.28019185	      0.00000000	     14.28790666	      2.77097635	     -3.64241911	     10.37152612	      4.97622209	     -4.06906193	      0.00000000	    -11.02717522	     -4.35494866	     -0.26902658	      3.96710477	    -17.25260037	     20.61835926	     30.49890742	    111.64514811	     -0.17809507	    -19.40116653	    -12.76612839	     30.96532213	    119.74817918
      0.11666670	     -2.05821533	     -1.25896416	    -26.25604582	      1.21203212	      0.99557042	      0.21838025	     19.49095054	     -3.04019804	     -5.01952014	     32.37683980	      9.31814893	     -2.31229486	      0.00000000	     14.16830794	      2.79377222	     -3.72362540	      9.94929126	      5.02110186	     -3.96365717	      0.00000000	    -11.17667452	     -4.12527142	      0.00831549	      4.25659243	    -17.37386455	     20.57557924	     29.89772227	    112.06225664	      0.25922056	    -19.56234406	    -12.37085604	     31.18256977	    119.74817918
      0.13333330	     -2.21339445	     -0.99469775	    -26.38330900	      1.21079556	      0.99542580	      0.21749105	     20.54133558	     -3.37676223	     -5.45433102	     33.77630371	      8.70770831	     -2.60160873	      0.00000000	     14.32932319	      2.98146986	     -4.05552362	      9.45722572	      4.50277096	     -3.79806721	      0.00000000	    -11.08691621	     -4.09694666	      0.20984692	      4.94451688	    -17.21359121	     20.42755125	     28.58429427	    113.08447487	      0.71720071	    -20.05704531	    -11.15523132	     31.24012609	    119.74817918
      0.15000000	     -2.23146069	     -0.88524866	    -26.52391019	      1.20973913	      0.99546685	      0.21677230	     21.24688547	     -3.56834665	     -5.76191371	     34.85124380	      8.07794125	     -3.16954000	      0.00000000	     14.30412611	      3.08455805	     -4.30887144	      9.10216050	      4.21576240	     -3.72913249	      0.00000000	    -11.13830378	     -3.96397636	      0.63360669	      5.27602706	    -17.20649063	     20.00349296	     27.76942168	    114.48058281	      1.28002387	    -20.48987749	    -10.07402258	     31.60405487	    119.74817918
      0.16666670	     -2.24097661	     -0.98630474	    -26.60134337	      1.20903119	      0.99570855	      0.21593111	     21.58745719	     -3.65896315	     -6.24014924	     35.44134526	      7.82570998	     -3.36340710	      0.00000000	     14.16694226	      3.01265321	     -4.31240505	      8.82099256	      4.16593886	     -3.64693947	      0.00000000	    -11.29852359	     -3.52831868	      1.15305850	      5.31218147	    -17.48249877	     19.86744249	     27.34868782	    114.62468109	      1.81690409	    -20.57610031	     -9.96680007	     32.14791086	    119.74817918
      0.18333330	     -2.35184413	     -1.07637142	    -26.70665340	      1.20831518	      0.99610781	      0.21543338	     21.97646954	     -3.61862611	     -6.34885468	     35.83771586	      7.26902996	     -3.60977505	      0.00000000	     13.97519637	      2.89293092	     -4.35570480	      8.25880533	      3.73366280	     -3.67475380	      0.00000000	    -11.32371495	     -3.10985144	      1.59799593	      5.46429997	    -17.35277356	     19.03935924	     26.30940643	    115.35392538	      1.94041956	    -21.04061365	     -8.65750882	     33.21582171	    119.74817918
